<?xml version="1.0" encoding="UTF-8"?>
<!DOCTYPE svg
  PUBLIC '-//W3C//DTD SVG 1.1//EN'
  'http://www.w3.org/Graphics/SVG/1.1/DTD/svg11.dtd'>
<svg version="1.1" xmlns="http://www.w3.org/2000/svg" width="60.500mm" height="23.764mm">
    <!--Autogenerated with python-barcode 0.14.0-->
    <g id="barcode_group">
        <rect width="100%" height="100%" style="fill:white"/>
        <rect x="6.500mm" y="1.000mm" width="0.500mm" height="15.000mm" style="fill:black;"/>
        <rect x="7.500mm" y="1.000mm" width="0.500mm" height="15.000mm" style="fill:black;"/>
        <rect x="9.500mm" y="1.000mm" width="0.500mm" height="15.000mm" style="fill:black;"/>
        <rect x="10.500mm" y="1.000mm" width="1.000mm" height="15.000mm" style="fill:black;"/>
        <rect x="12.000mm" y="1.000mm" width="0.500mm" height="15.000mm" style="fill:black;"/>
        <rect x="13.500mm" y="1.000mm" width="1.500mm" height="15.000mm" style="fill:black;"/>
        <rect x="16.000mm" y="1.000mm" width="1.000mm" height="15.000mm" style="fill:black;"/>
        <rect x="18.000mm" y="1.000mm" width="0.500mm" height="15.000mm" style="fill:black;"/>
        <rect x="19.000mm" y="1.000mm" width="0.500mm" height="15.000mm" style="fill:black;"/>
        <rect x="20.500mm" y="1.000mm" width="1.500mm" height="15.000mm" style="fill:black;"/>
        <rect x="23.000mm" y="1.000mm" width="0.500mm" height="15.000mm" style="fill:black;"/>
        <rect x="25.000mm" y="1.000mm" width="0.500mm" height="15.000mm" style="fill:black;"/>
        <rect x="26.500mm" y="1.000mm" width="0.500mm" height="15.000mm" style="fill:black;"/>
        <rect x="28.000mm" y="1.000mm" width="1.000mm" height="15.000mm" style="fill:black;"/>
        <rect x="29.500mm" y="1.000mm" width="0.500mm" height="15.000mm" style="fill:black;"/>
        <rect x="30.500mm" y="1.000mm" width="0.500mm" height="15.000mm" style="fill:black;"/>
        <rect x="31.500mm" y="1.000mm" width="1.500mm" height="15.000mm" style="fill:black;"/>
        <rect x="34.000mm" y="1.000mm" width="0.500mm" height="15.000mm" style="fill:black;"/>
        <rect x="35.000mm" y="1.000mm" width="1.500mm" height="15.000mm" style="fill:black;"/>
        <rect x="37.500mm" y="1.000mm" width="0.500mm" height="15.000mm" style="fill:black;"/>
        <rect x="38.500mm" y="1.000mm" width="1.000mm" height="15.000mm" style="fill:black;"/>
        <rect x="40.000mm" y="1.000mm" width="1.000mm" height="15.000mm" style="fill:black;"/>
        <rect x="42.000mm" y="1.000mm" width="0.500mm" height="15.000mm" style="fill:black;"/>
        <rect x="43.000mm" y="1.000mm" width="1.500mm" height="15.000mm" style="fill:black;"/>
        <rect x="45.500mm" y="1.000mm" width="0.500mm" height="15.000mm" style="fill:black;"/>
        <rect x="47.500mm" y="1.000mm" width="0.500mm" height="15.000mm" style="fill:black;"/>
        <rect x="49.000mm" y="1.000mm" width="0.500mm" height="15.000mm" style="fill:black;"/>
        <rect x="50.500mm" y="1.000mm" width="0.500mm" height="15.000mm" style="fill:black;"/>
        <rect x="52.500mm" y="1.000mm" width="0.500mm" height="15.000mm" style="fill:black;"/>
        <rect x="53.500mm" y="1.000mm" width="0.500mm" height="15.000mm" style="fill:black;"/>
        <text x="30.250mm" y="21.000mm" style="fill:black;font-size:10pt;text-anchor:middle;">8901072002478</text>
    </g>
</svg>
