<?xml version="1.0" encoding="UTF-8"?>
<!DOCTYPE svg
  PUBLIC '-//W3C//DTD SVG 1.1//EN'
  'http://www.w3.org/Graphics/SVG/1.1/DTD/svg11.dtd'>
<svg version="1.1" xmlns="http://www.w3.org/2000/svg" width="41.350mm" height="23.764mm">
    <!--Autogenerated with python-barcode 0.14.0-->
    <g id="barcode_group">
        <rect width="100%" height="100%" style="fill:white"/>
        <rect x="5.000mm" y="1.000mm" width="0.330mm" height="15.000mm" style="fill:black;"/>
        <rect x="5.660mm" y="1.000mm" width="0.330mm" height="15.000mm" style="fill:black;"/>
        <rect x="6.980mm" y="1.000mm" width="0.330mm" height="15.000mm" style="fill:black;"/>
        <rect x="7.640mm" y="1.000mm" width="0.660mm" height="15.000mm" style="fill:black;"/>
        <rect x="8.630mm" y="1.000mm" width="0.330mm" height="15.000mm" style="fill:black;"/>
        <rect x="9.620mm" y="1.000mm" width="0.990mm" height="15.000mm" style="fill:black;"/>
        <rect x="11.270mm" y="1.000mm" width="0.660mm" height="15.000mm" style="fill:black;"/>
        <rect x="12.590mm" y="1.000mm" width="0.330mm" height="15.000mm" style="fill:black;"/>
        <rect x="13.250mm" y="1.000mm" width="0.330mm" height="15.000mm" style="fill:black;"/>
        <rect x="14.240mm" y="1.000mm" width="0.990mm" height="15.000mm" style="fill:black;"/>
        <rect x="15.890mm" y="1.000mm" width="0.330mm" height="15.000mm" style="fill:black;"/>
        <rect x="17.210mm" y="1.000mm" width="0.330mm" height="15.000mm" style="fill:black;"/>
        <rect x="18.200mm" y="1.000mm" width="0.330mm" height="15.000mm" style="fill:black;"/>
        <rect x="19.190mm" y="1.000mm" width="0.660mm" height="15.000mm" style="fill:black;"/>
        <rect x="20.180mm" y="1.000mm" width="0.330mm" height="15.000mm" style="fill:black;"/>
        <rect x="20.840mm" y="1.000mm" width="0.330mm" height="15.000mm" style="fill:black;"/>
        <rect x="21.500mm" y="1.000mm" width="0.990mm" height="15.000mm" style="fill:black;"/>
        <rect x="23.150mm" y="1.000mm" width="0.330mm" height="15.000mm" style="fill:black;"/>
        <rect x="23.810mm" y="1.000mm" width="0.990mm" height="15.000mm" style="fill:black;"/>
        <rect x="25.460mm" y="1.000mm" width="0.330mm" height="15.000mm" style="fill:black;"/>
        <rect x="26.120mm" y="1.000mm" width="0.660mm" height="15.000mm" style="fill:black;"/>
        <rect x="27.110mm" y="1.000mm" width="0.660mm" height="15.000mm" style="fill:black;"/>
        <rect x="28.430mm" y="1.000mm" width="0.330mm" height="15.000mm" style="fill:black;"/>
        <rect x="29.090mm" y="1.000mm" width="0.990mm" height="15.000mm" style="fill:black;"/>
        <rect x="30.740mm" y="1.000mm" width="0.330mm" height="15.000mm" style="fill:black;"/>
        <rect x="32.060mm" y="1.000mm" width="0.330mm" height="15.000mm" style="fill:black;"/>
        <rect x="33.050mm" y="1.000mm" width="0.330mm" height="15.000mm" style="fill:black;"/>
        <rect x="34.040mm" y="1.000mm" width="0.330mm" height="15.000mm" style="fill:black;"/>
        <rect x="35.360mm" y="1.000mm" width="0.330mm" height="15.000mm" style="fill:black;"/>
        <rect x="36.020mm" y="1.000mm" width="0.330mm" height="15.000mm" style="fill:black;"/>
        <text x="20.675mm" y="21.000mm" style="fill:black;font-size:10pt;text-anchor:middle;">8901072002478</text>
    </g>
</svg>
