<?xml version="1.0" encoding="UTF-8"?>
<!DOCTYPE svg
  PUBLIC '-//W3C//DTD SVG 1.1//EN'
  'http://www.w3.org/Graphics/SVG/1.1/DTD/svg11.dtd'>
<svg version="1.1" xmlns="http://www.w3.org/2000/svg" width="71.350mm" height="23.764mm">
    <!--Autogenerated with python-barcode 0.14.0-->
    <g id="barcode_group">
        <rect width="100%" height="100%" style="fill:white"/>
        <rect x="20.000mm" y="1.000mm" width="0.330mm" height="15.000mm" style="fill:black;"/>
        <rect x="20.660mm" y="1.000mm" width="0.330mm" height="15.000mm" style="fill:black;"/>
        <rect x="21.980mm" y="1.000mm" width="0.330mm" height="15.000mm" style="fill:black;"/>
        <rect x="22.640mm" y="1.000mm" width="0.660mm" height="15.000mm" style="fill:black;"/>
        <rect x="23.630mm" y="1.000mm" width="0.330mm" height="15.000mm" style="fill:black;"/>
        <rect x="24.620mm" y="1.000mm" width="0.990mm" height="15.000mm" style="fill:black;"/>
        <rect x="26.270mm" y="1.000mm" width="0.660mm" height="15.000mm" style="fill:black;"/>
        <rect x="27.590mm" y="1.000mm" width="0.330mm" height="15.000mm" style="fill:black;"/>
        <rect x="28.250mm" y="1.000mm" width="0.330mm" height="15.000mm" style="fill:black;"/>
        <rect x="29.240mm" y="1.000mm" width="0.990mm" height="15.000mm" style="fill:black;"/>
        <rect x="30.890mm" y="1.000mm" width="0.330mm" height="15.000mm" style="fill:black;"/>
        <rect x="32.210mm" y="1.000mm" width="0.330mm" height="15.000mm" style="fill:black;"/>
        <rect x="33.200mm" y="1.000mm" width="0.330mm" height="15.000mm" style="fill:black;"/>
        <rect x="34.190mm" y="1.000mm" width="0.660mm" height="15.000mm" style="fill:black;"/>
        <rect x="35.180mm" y="1.000mm" width="0.330mm" height="15.000mm" style="fill:black;"/>
        <rect x="35.840mm" y="1.000mm" width="0.330mm" height="15.000mm" style="fill:black;"/>
        <rect x="36.500mm" y="1.000mm" width="0.990mm" height="15.000mm" style="fill:black;"/>
        <rect x="38.150mm" y="1.000mm" width="0.330mm" height="15.000mm" style="fill:black;"/>
        <rect x="38.810mm" y="1.000mm" width="0.990mm" height="15.000mm" style="fill:black;"/>
        <rect x="40.460mm" y="1.000mm" width="0.330mm" height="15.000mm" style="fill:black;"/>
        <rect x="41.120mm" y="1.000mm" width="0.660mm" height="15.000mm" style="fill:black;"/>
        <rect x="42.110mm" y="1.000mm" width="0.660mm" height="15.000mm" style="fill:black;"/>
        <rect x="43.430mm" y="1.000mm" width="0.330mm" height="15.000mm" style="fill:black;"/>
        <rect x="44.090mm" y="1.000mm" width="0.990mm" height="15.000mm" style="fill:black;"/>
        <rect x="45.740mm" y="1.000mm" width="0.330mm" height="15.000mm" style="fill:black;"/>
        <rect x="47.060mm" y="1.000mm" width="0.330mm" height="15.000mm" style="fill:black;"/>
        <rect x="48.050mm" y="1.000mm" width="0.330mm" height="15.000mm" style="fill:black;"/>
        <rect x="49.040mm" y="1.000mm" width="0.330mm" height="15.000mm" style="fill:black;"/>
        <rect x="50.360mm" y="1.000mm" width="0.330mm" height="15.000mm" style="fill:black;"/>
        <rect x="51.020mm" y="1.000mm" width="0.330mm" height="15.000mm" style="fill:black;"/>
        <text x="35.675mm" y="21.000mm" style="fill:black;font-size:10pt;text-anchor:middle;">8901072002478</text>
    </g>
</svg>
